<svg xmlns="http://www.w3.org/2000/svg" viewBox="0 0 800 500" width="800" height="500" role="img" aria-label="Branding Center interface: a grid of logo slots with one marked primary, a palette of brand colours, and a font list">
<defs>
<linearGradient id="bg3" x1="0" y1="0" x2="1" y2="1">
<stop offset="0" stop-color="#eef1ec"/><stop offset="1" stop-color="#e3e8e0"/>
</linearGradient>
<filter id="sh3" x="-8%" y="-8%" width="116%" height="124%">
<feDropShadow dx="0" dy="6" stdDeviation="12" flood-color="#2c3a2c" flood-opacity="0.10"/>
</filter>
</defs>
<rect width="800" height="500" fill="url(#bg3)"/>
<g filter="url(#sh3)"><rect x="70" y="56" width="660" height="392" rx="10" fill="#ffffff"/></g>
<path d="M70 66a10 10 0 0 1 10-10h640a10 10 0 0 1 10 10v22H70z" fill="#f8faf7"/>
<circle cx="90" cy="77" r="3.5" fill="#d7ddd4"/><circle cx="103" cy="77" r="3.5" fill="#d7ddd4"/><circle cx="116" cy="77" r="3.5" fill="#d7ddd4"/>
<rect x="70" y="88" width="660" height="1" fill="#e9ede7"/>
<!-- page title -->
<path d="M96 112l-7 6 7 6" fill="none" stroke="#9aa396" stroke-width="1.6" stroke-linecap="round" stroke-linejoin="round"/>
<text x="112" y="123" font-family="Inter,sans-serif" font-size="14" font-weight="500" fill="#28321f">Branding Center</text>
<!-- LOGOS -->
<text x="96" y="156" font-family="Inter,sans-serif" font-size="10" font-weight="600" fill="#28321f">Logos</text>
<rect x="96" y="164" width="240" height="5" rx="2.5" fill="#e6eae2"/>
<g>
<!-- primary slot -->
<rect x="96" y="182" width="112" height="72" rx="7" fill="#f4f7f2" stroke="#5f7a5f" stroke-width="1.5"/>
<rect x="104" y="190" width="44" height="14" rx="7" fill="#5f7a5f"/>
<text x="126" y="200" text-anchor="middle" font-family="Inter,sans-serif" font-size="7.5" font-weight="600" fill="#fff">PRIMARY</text>
<circle cx="140" cy="226" r="13" fill="#5f7a5f" opacity="0.22"/><rect x="158" y="220" width="36" height="8" rx="4" fill="#5f7a5f" opacity="0.5"/>
<rect x="220" y="182" width="112" height="72" rx="7" fill="#f7f8f6" stroke="#e6eae2"/>
<circle cx="262" cy="218" r="12" fill="#cdd5c9"/><rect x="280" y="213" width="32" height="7" rx="3.5" fill="#dde3d9"/>
<rect x="344" y="182" width="112" height="72" rx="7" fill="#f7f8f6" stroke="#e6eae2"/>
<rect x="366" y="211" width="68" height="14" rx="4" fill="#cdd5c9"/>
<rect x="468" y="182" width="112" height="72" rx="7" fill="#f7f8f6" stroke="#e6eae2"/>
<circle cx="510" cy="218" r="12" fill="#dde3d9"/><rect x="528" y="213" width="32" height="7" rx="3.5" fill="#e6eae2"/>
<!-- empty slot -->
<rect x="592" y="182" width="112" height="72" rx="7" fill="#fbfcfa" stroke="#e0e6dc" stroke-dasharray="4 4"/>
<path d="M648 208v20M638 218h20" stroke="#c3ccbe" stroke-width="1.6" stroke-linecap="round"/>
</g>
<!-- COLORS -->
<text x="96" y="288" font-family="Inter,sans-serif" font-size="10" font-weight="600" fill="#28321f">Colors</text>
<rect x="96" y="296" width="200" height="5" rx="2.5" fill="#e6eae2"/>
<g>
<rect x="96" y="312" width="66" height="44" rx="6" fill="#2f5d8a"/>
<rect x="174" y="312" width="66" height="44" rx="6" fill="#1f3d5c"/>
<rect x="252" y="312" width="66" height="44" rx="6" fill="#4a8f5c"/>
<rect x="330" y="312" width="66" height="44" rx="6" fill="#1f5340"/>
<rect x="408" y="312" width="66" height="44" rx="6" fill="#c0492f"/>
<rect x="486" y="312" width="66" height="44" rx="6" fill="#d98026"/>
<rect x="564" y="312" width="66" height="44" rx="6" fill="#e2b13c"/>
<rect x="642" y="312" width="62" height="44" rx="6" fill="#fbfcfa" stroke="#e0e6dc" stroke-dasharray="4 4"/>
<path d="M673 328v12M667 334h12" stroke="#c3ccbe" stroke-width="1.5" stroke-linecap="round"/>
</g>
<!-- FONTS -->
<text x="96" y="390" font-family="Inter,sans-serif" font-size="10" font-weight="600" fill="#28321f">Fonts</text>
<g font-family="Inter,sans-serif" font-size="11">
<rect x="96" y="400" width="176" height="30" rx="6" fill="#f7f8f6" stroke="#e6eae2"/>
<text x="112" y="419" font-family="Georgia,serif" fill="#3c4a38">Playfair Display</text>
<rect x="286" y="400" width="176" height="30" rx="6" fill="#f7f8f6" stroke="#e6eae2"/>
<text x="302" y="419" font-family="Inter,sans-serif" fill="#3c4a38">Inter</text>
<rect x="476" y="400" width="176" height="30" rx="6" fill="#f7f8f6" stroke="#e6eae2"/>
<text x="492" y="419" font-family="Courier,monospace" fill="#3c4a38">IBM Plex Mono</text>
</g>
</svg>
