<svg xmlns="http://www.w3.org/2000/svg" viewBox="0 0 800 500" width="800" height="500" role="img" aria-label="Before and after: before, brand guidelines lived in a document outside the product and were applied by hand to fifteen or more assets whose logos drifted; after, one brand definition is referenced by the email builder, landing page builder, popup builder and shared content" font-family="Inter, Helvetica, Arial, sans-serif">
<rect width="800" height="500" fill="#f3f3f0"/>
<text x="48" y="52" font-size="9" fill="#6e6e6e" text-anchor="start" letter-spacing="1.6">BEFORE</text>
<text x="412" y="52" font-size="9" fill="#6e6e6e" text-anchor="start" letter-spacing="1.6">AFTER</text>
<line x1="400" y1="40" x2="400" y2="460" stroke="#e0e0da" stroke-width="1"/>
<rect x="60" y="72" width="120" height="70" rx="6" fill="#fafaf8" stroke="#e0e0da"/>
<rect x="74" y="86" width="60" height="4" rx="2" fill="#cfcfc8"/>
<rect x="74" y="98" width="67" height="4" rx="2" fill="#cfcfc8"/>
<rect x="74" y="110" width="74" height="4" rx="2" fill="#cfcfc8"/>
<rect x="74" y="122" width="40" height="4" rx="2" fill="#cfcfc8"/>
<text x="190" y="92" font-size="10.5" fill="#0f0f0f" text-anchor="start" font-weight="500">Brand guidelines,</text>
<text x="190" y="108" font-size="10.5" fill="#6b6b6b" text-anchor="start">kept outside the product</text>
<line x1="120" y1="142" x2="120" y2="164" stroke="#cfcfc8" stroke-width="1.25"/><path d="M113 159 L120 164 L113 169" fill="none" stroke="#cfcfc8" stroke-width="1.25" stroke-linecap="round" stroke-linejoin="round"/>
<text x="60" y="186" font-size="10.5" fill="#6b6b6b" text-anchor="start">Applied by hand to every asset, in every automation</text>
<rect x="60" y="200" width="56" height="34" rx="4" fill="#fafaf8" stroke="#e0e0da"/>
<circle cx="72" cy="212" r="5" fill="#9aa3b3"/>
<rect x="82" y="209" width="24" height="3" rx="1.5" fill="#cfcfc8"/><rect x="82" y="216" width="18" height="3" rx="1.5" fill="#e0e0da"/>
<rect x="124" y="200" width="56" height="34" rx="4" fill="#fafaf8" stroke="#e0e0da"/>
<circle cx="136" cy="212" r="5" fill="#a3b39a"/>
<rect x="146" y="209" width="24" height="3" rx="1.5" fill="#cfcfc8"/><rect x="146" y="216" width="18" height="3" rx="1.5" fill="#e0e0da"/>
<rect x="188" y="200" width="56" height="34" rx="4" fill="#fafaf8" stroke="#e0e0da"/>
<circle cx="200" cy="212" r="5" fill="#b3a39a"/>
<rect x="210" y="209" width="24" height="3" rx="1.5" fill="#cfcfc8"/><rect x="210" y="216" width="18" height="3" rx="1.5" fill="#e0e0da"/>
<rect x="252" y="200" width="56" height="34" rx="4" fill="#fafaf8" stroke="#e0e0da"/>
<circle cx="264" cy="212" r="5" fill="#8f9fb5"/>
<rect x="274" y="209" width="24" height="3" rx="1.5" fill="#cfcfc8"/><rect x="274" y="216" width="18" height="3" rx="1.5" fill="#e0e0da"/>
<rect x="316" y="200" width="56" height="34" rx="4" fill="#fafaf8" stroke="#e0e0da"/>
<circle cx="328" cy="212" r="5" fill="#a8a898"/>
<rect x="338" y="209" width="24" height="3" rx="1.5" fill="#cfcfc8"/><rect x="338" y="216" width="18" height="3" rx="1.5" fill="#e0e0da"/>
<rect x="60" y="246" width="56" height="34" rx="4" fill="#fafaf8" stroke="#e0e0da"/>
<circle cx="72" cy="258" r="5" fill="#9aa3b3"/>
<rect x="82" y="255" width="24" height="3" rx="1.5" fill="#cfcfc8"/><rect x="82" y="262" width="18" height="3" rx="1.5" fill="#e0e0da"/>
<rect x="124" y="246" width="56" height="34" rx="4" fill="#fafaf8" stroke="#e0e0da"/>
<circle cx="136" cy="258" r="5" fill="#a3b39a"/>
<rect x="146" y="255" width="24" height="3" rx="1.5" fill="#cfcfc8"/><rect x="146" y="262" width="18" height="3" rx="1.5" fill="#e0e0da"/>
<rect x="188" y="246" width="56" height="34" rx="4" fill="#fafaf8" stroke="#e0e0da"/>
<circle cx="200" cy="258" r="5" fill="#b3a39a"/>
<rect x="210" y="255" width="24" height="3" rx="1.5" fill="#cfcfc8"/><rect x="210" y="262" width="18" height="3" rx="1.5" fill="#e0e0da"/>
<rect x="252" y="246" width="56" height="34" rx="4" fill="#fafaf8" stroke="#e0e0da"/>
<circle cx="264" cy="258" r="5" fill="#8f9fb5"/>
<rect x="274" y="255" width="24" height="3" rx="1.5" fill="#cfcfc8"/><rect x="274" y="262" width="18" height="3" rx="1.5" fill="#e0e0da"/>
<rect x="316" y="246" width="56" height="34" rx="4" fill="#fafaf8" stroke="#e0e0da"/>
<circle cx="328" cy="258" r="5" fill="#a8a898"/>
<rect x="338" y="255" width="24" height="3" rx="1.5" fill="#cfcfc8"/><rect x="338" y="262" width="18" height="3" rx="1.5" fill="#e0e0da"/>
<rect x="60" y="292" width="56" height="34" rx="4" fill="#fafaf8" stroke="#e0e0da"/>
<circle cx="72" cy="304" r="5" fill="#9aa3b3"/>
<rect x="82" y="301" width="24" height="3" rx="1.5" fill="#cfcfc8"/><rect x="82" y="308" width="18" height="3" rx="1.5" fill="#e0e0da"/>
<rect x="124" y="292" width="56" height="34" rx="4" fill="#fafaf8" stroke="#e0e0da"/>
<circle cx="136" cy="304" r="5" fill="#a3b39a"/>
<rect x="146" y="301" width="24" height="3" rx="1.5" fill="#cfcfc8"/><rect x="146" y="308" width="18" height="3" rx="1.5" fill="#e0e0da"/>
<rect x="188" y="292" width="56" height="34" rx="4" fill="#fafaf8" stroke="#e0e0da"/>
<circle cx="200" cy="304" r="5" fill="#b3a39a"/>
<rect x="210" y="301" width="24" height="3" rx="1.5" fill="#cfcfc8"/><rect x="210" y="308" width="18" height="3" rx="1.5" fill="#e0e0da"/>
<rect x="252" y="292" width="56" height="34" rx="4" fill="#fafaf8" stroke="#e0e0da"/>
<circle cx="264" cy="304" r="5" fill="#8f9fb5"/>
<rect x="274" y="301" width="24" height="3" rx="1.5" fill="#cfcfc8"/><rect x="274" y="308" width="18" height="3" rx="1.5" fill="#e0e0da"/>
<rect x="316" y="292" width="56" height="34" rx="4" fill="#fafaf8" stroke="#e0e0da"/>
<circle cx="328" cy="304" r="5" fill="#a8a898"/>
<rect x="338" y="301" width="24" height="3" rx="1.5" fill="#cfcfc8"/><rect x="338" y="308" width="18" height="3" rx="1.5" fill="#e0e0da"/>
<text x="60" y="362" font-size="10.5" fill="#0f0f0f" text-anchor="start">15+ assets, edited one at a time —</text>
<text x="60" y="378" font-size="10.5" fill="#6b6b6b" text-anchor="start">so logos drifted and outdated assets went out the door.</text>
<rect x="424" y="150" width="130" height="88" rx="8" fill="#0f0f0f"/>
<text x="489" y="186" font-size="11" fill="#fafaf8" text-anchor="middle" font-weight="600">One brand</text>
<text x="489" y="202" font-size="11" fill="#fafaf8" text-anchor="middle" font-weight="600">definition</text>
<circle cx="489" cy="222" r="5" fill="#fafaf8"/>
<line x1="554" y1="194" x2="586" y2="194" stroke="#0f0f0f" stroke-width="1"/>
<line x1="586" y1="96" x2="586" y2="292" stroke="#0f0f0f" stroke-width="1"/>
<line x1="586" y1="96" x2="606" y2="96" stroke="#0f0f0f" stroke-width="1"/>
<rect x="606" y="80" width="146" height="32" rx="5" fill="#fafaf8" stroke="#0f0f0f" stroke-width="1.1"/>
<circle cx="622" cy="96" r="5" fill="#0f0f0f"/>
<text x="634" y="100" font-size="10.5" fill="#0f0f0f" text-anchor="start">Email builder</text>
<line x1="586" y1="162" x2="606" y2="162" stroke="#0f0f0f" stroke-width="1"/>
<rect x="606" y="146" width="146" height="32" rx="5" fill="#fafaf8" stroke="#0f0f0f" stroke-width="1.1"/>
<circle cx="622" cy="162" r="5" fill="#0f0f0f"/>
<text x="634" y="166" font-size="10.5" fill="#0f0f0f" text-anchor="start">Landing page builder</text>
<line x1="586" y1="228" x2="606" y2="228" stroke="#0f0f0f" stroke-width="1"/>
<rect x="606" y="212" width="146" height="32" rx="5" fill="#fafaf8" stroke="#0f0f0f" stroke-width="1.1"/>
<circle cx="622" cy="228" r="5" fill="#0f0f0f"/>
<text x="634" y="232" font-size="10.5" fill="#0f0f0f" text-anchor="start">Popup builder</text>
<line x1="586" y1="294" x2="606" y2="294" stroke="#0f0f0f" stroke-width="1"/>
<rect x="606" y="278" width="146" height="32" rx="5" fill="#fafaf8" stroke="#0f0f0f" stroke-width="1.1"/>
<circle cx="622" cy="294" r="5" fill="#0f0f0f"/>
<text x="634" y="298" font-size="10.5" fill="#0f0f0f" text-anchor="start">Shared content</text>
<text x="424" y="362" font-size="10.5" fill="#0f0f0f" text-anchor="start">Referenced, never copied —</text>
<text x="424" y="378" font-size="10.5" fill="#6b6b6b" text-anchor="start">change it once and every surface reads the change.</text>
</svg>
